<svg width="636" height="180" viewBox="0 0 636 180" fill="none" xmlns="http://www.w3.org/2000/svg">
<g clip-path="url(#clip0)">
<path d="M317.946 39.8778L274.551 64.9272V115.034L317.946 140.084L361.34 115.034V64.9272L317.946 39.8778Z" fill="url(#paint0_linear)"/>
<path d="M361.338 115.036V64.9292L346.868 89.9868L361.338 115.036Z" fill="#F8B564"/>
<path d="M317.951 39.8778L332.413 64.9272H361.345L317.951 39.8778Z" fill="#A680B0"/>
<path d="M332.409 64.9292L342.996 83.2742L346.871 89.9868L361.341 64.9292H332.409Z" fill="#D09B89"/>
<path d="M317.946 39.8778L274.551 64.9272H303.483L317.946 39.8778Z" fill="#5147E8"/>
<path d="M317.955 39.8778L303.493 64.9272H332.417L317.955 39.8778Z" fill="#574CFA"/>
<path d="M332.404 64.9292H324.654V78.3618L336.279 71.6418L332.404 64.9292Z" fill="#6354EF"/>
<path d="M274.551 64.9292V115.036L289.021 89.9868L274.551 64.9292Z" fill="#4139B9"/>
<path d="M303.483 64.9292H274.551L289.021 89.9868L292.896 83.2742L303.483 64.9292Z" fill="#443BC2"/>
<path d="M303.477 64.9292L299.603 71.6418L311.227 78.3537V64.9292H303.477Z" fill="#473ECB"/>
<path d="M311.224 64.9292V78.3537L317.936 82.2368L324.649 78.3618V64.9292H311.224Z" fill="#4A41D5"/>
<path d="M317.946 140.082L303.483 115.032H274.551L317.946 140.082Z" fill="#342E96"/>
<path d="M292.896 96.6927L289.021 89.9808L274.551 115.03H303.483L292.896 96.6927Z" fill="#3A33A7"/>
<path d="M292.885 83.2774L289.01 89.99L292.885 96.7019L304.51 89.99L292.885 83.2774Z" fill="#3E36B0"/>
<path d="M299.612 71.6326L292.9 83.265L304.525 89.9776L311.236 86.1026V78.3445L299.612 71.6326Z" fill="#3E36B0"/>
<path d="M311.224 78.36V86.1181L317.936 82.2432L311.224 78.36Z" fill="#3E36B0"/>
<path d="M361.345 115.032H332.413L317.951 140.082L361.345 115.032Z" fill="#251F68"/>
<path d="M361.341 115.03L346.871 89.9808L342.996 96.6927L332.409 115.03H361.341Z" fill="#3E36B0"/>
<path d="M343.007 83.2774L331.382 89.99L343.007 96.7019L346.882 89.99L343.007 83.2774Z" fill="#38319F"/>
<path d="M336.279 71.6326L324.654 78.3526V86.1026L331.366 89.9776L342.991 83.265L336.279 71.6326Z" fill="#38319F"/>
<path d="M317.951 82.2351L324.664 86.1101V78.3602L317.951 82.2351Z" fill="#342E96"/>
<path d="M332.417 115.032H303.493L317.955 140.082L332.417 115.032Z" fill="#211C5F"/>
<path d="M336.279 108.314L324.654 101.601V115.027H332.404L336.279 108.314Z" fill="#312B8D"/>
<path d="M331.366 89.9808L324.654 93.8558V101.605L336.279 108.318L342.991 96.6927L331.366 89.9808Z" fill="#2E2884"/>
<path d="M324.654 86.1153V93.8652L331.366 89.9903L324.654 86.1153Z" fill="#2B257A"/>
<path d="M299.603 108.314L303.477 115.027H311.227V101.601L299.603 108.314Z" fill="#282271"/>
<path d="M317.936 97.7365L311.224 101.611V115.036H324.649V101.611L317.936 97.7359V97.7365Z" fill="#2B257A"/>
<path d="M317.951 97.7453L324.664 101.62V93.8704L317.951 97.7453Z" fill="#282271"/>
<path d="M304.525 89.9808L292.9 96.6927L299.612 108.318L311.236 101.605V93.8558L304.525 89.9808Z" fill="#282271"/>
<path d="M311.224 93.8704V101.62L317.936 97.7447L311.224 93.8704Z" fill="#282271"/>
<path d="M304.52 89.9903L311.232 93.8652V86.1153L304.52 89.9903Z" fill="#282271"/>
<path d="M317.936 82.2257L311.224 86.1006V93.8506L317.936 97.7249L324.649 93.8506V86.1006L317.936 82.2257Z" fill="#251F68"/>
</g>
<path d="M571.325 28.6302H621.922" stroke="#574CFA" stroke-width="2" stroke-dasharray="2 2"/>
<path d="M507.675 107.363L535.283 93.0482" stroke="#574CFA" stroke-width="2"/>
<path d="M495.916 50.1029L379.35 89.9807" stroke="#574CFA" stroke-width="2"/>
<path d="M621.685 69.5305H501.029L379.35 89.9807" stroke="#574CFA" stroke-width="2"/>
<path d="M534.901 89.9807L379.35 89.9807" stroke="#574CFA" stroke-width="2" stroke-dasharray="2 2"/>
<path d="M595.1 110.431L508.186 110.431M621.685 171.781H508.186" stroke="#574CFA" stroke-width="2"/>
<path d="M544.997 49.0804L508.186 49.0804" stroke="#574CFA" stroke-width="2"/>
<path d="M621.685 130.881H555.222M615.55 89.9807H547.042" stroke="#574CFA" stroke-width="2"/>
<path d="M597.145 8.18005L508.187 8.18005" stroke="#574CFA" stroke-width="2"/>
<path d="M496.428 11.2476L379.35 89.9807" stroke="#574CFA" stroke-width="2"/>
<path d="M559.312 28.6302H515.855L505.119 13.2926" stroke="#574CFA" stroke-width="2"/>
<path d="M603.28 49.0804H579.251L568.514 33.7428" stroke="#574CFA" stroke-width="2"/>
<path d="M542.952 130.881H501.029L379.35 89.9807" stroke="#574CFA" stroke-width="2"/>
<path d="M495.916 109.408L379.35 89.9807" stroke="#574CFA" stroke-width="2"/>
<path d="M496.428 168.714L379.35 89.9807" stroke="#574CFA" stroke-width="2"/>
<path d="M579.251 151.331H501.029L379.35 89.9807" stroke="#574CFA" stroke-width="2" stroke-dasharray="2 2"/>
<path d="M597.196 4.66738L603.28 1.1547L609.364 4.66738V11.6927L603.28 15.2054L597.196 11.6927V4.66738Z" stroke="#574CFA" stroke-width="2"/>
<path d="M615.601 86.468L621.685 82.9553L627.769 86.468V93.4934L621.685 97.0061L615.601 93.4934V86.468Z" stroke="#574CFA" stroke-width="2"/>
<path d="M559.363 25.1175L565.447 21.6049L571.531 25.1175V32.1429L565.447 35.6556L559.363 32.1429V25.1175Z" stroke="#574CFA" stroke-width="2"/>
<path d="M495.967 106.918L502.051 103.405L508.136 106.918V113.944L502.051 117.456L495.967 113.944V106.918Z" stroke="#574CFA" stroke-width="2"/>
<path d="M534.823 86.468L540.907 82.9553L546.991 86.468V93.4934L540.907 97.0061L534.823 93.4934V86.468Z" stroke="#574CFA" stroke-width="2"/>
<path d="M495.967 45.5677L502.051 42.055L508.136 45.5677V52.5931L502.051 56.1058L495.967 52.5931V45.5677Z" stroke="#574CFA" stroke-width="2"/>
<path d="M545.048 45.5677L551.132 42.055L557.216 45.5677V52.5931L551.132 56.1058L545.048 52.5931V45.5677Z" stroke="#574CFA" stroke-width="2"/>
<path d="M621.736 25.1175L627.82 21.6049L633.904 25.1175V32.1429L627.82 35.6556L621.736 32.1429V25.1175Z" stroke="#574CFA" stroke-width="2"/>
<path d="M495.967 4.66738L502.051 1.1547L508.136 4.66738V11.6927L502.051 15.2054L495.967 11.6927V4.66738Z" stroke="#574CFA" stroke-width="2"/>
<path d="M595.151 106.918L601.235 103.405L607.319 106.918V113.944L601.235 117.456L595.151 113.944V106.918Z" stroke="#574CFA" stroke-width="2"/>
<path d="M603.331 45.5677L609.415 42.055L615.499 45.5677V52.5931L609.415 56.1058L603.331 52.5931V45.5677Z" stroke="#574CFA" stroke-width="2"/>
<path d="M621.736 127.368L627.82 123.856L633.904 127.368V134.394L627.82 137.906L621.736 134.394V127.368Z" stroke="#574CFA" stroke-width="2"/>
<path d="M543.003 127.368L549.087 123.856L555.171 127.368V134.394L549.087 137.906L543.003 134.394V127.368Z" stroke="#574CFA" stroke-width="2"/>
<path d="M621.736 66.0179L627.82 62.5052L633.904 66.0179V73.0432L627.82 76.5559L621.736 73.0432V66.0179Z" stroke="#574CFA" stroke-width="2"/>
<path d="M578.79 147.819L584.875 144.306L590.959 147.819V154.844L584.875 158.357L578.79 154.844V147.819Z" stroke="#574CFA" stroke-width="2"/>
<path d="M621.736 168.269L627.82 164.756L633.904 168.269V175.294L627.82 178.807L621.736 175.294V168.269Z" stroke="#574CFA" stroke-width="2"/>
<path d="M495.967 168.269L502.051 164.756L508.136 168.269V175.294L502.051 178.807L495.967 175.294V168.269Z" stroke="#574CFA" stroke-width="2"/>
<path d="M30.3642 49.0804H134.971L256.65 89.9807" stroke="#FE9100" stroke-width="2" stroke-dasharray="2 2"/>
<path d="M13.8039 69.5305H134.971L256.649 89.9807" stroke="#FE9100" stroke-width="2" stroke-dasharray="2 2"/>
<path d="M52.1479 89.9807L256.65 89.9807" stroke="#FE9100" stroke-width="2" stroke-dasharray="2 2"/>
<path d="M14.1466 8.18005H134.971L256.65 89.9807" stroke="#FE9100" stroke-width="2" stroke-dasharray="2 2"/>
<path d="M56.1194 28.6302H134.971L256.649 89.9807" stroke="#FE9100" stroke-width="2" stroke-dasharray="2 2"/>
<path d="M13.8039 130.881H134.971L256.65 89.9807" stroke="#FE9100" stroke-width="2" stroke-dasharray="2 2"/>
<path d="M30.4141 110.431H134.971L256.649 89.9807" stroke="#FE9100" stroke-width="2" stroke-dasharray="2 2"/>
<path d="M22.3336 171.781H134.971L256.649 89.9807" stroke="#FE9100" stroke-width="2" stroke-dasharray="2 2"/>
<path d="M47.8459 151.331H134.971L256.649 89.9807" stroke="#FE9100" stroke-width="2" stroke-dasharray="2 2"/>
<path d="M40.9512 86.468L47.0354 82.9553L53.1195 86.468V93.4934L47.0354 97.0061L40.9512 93.4934V86.468Z" stroke="#FE9100" stroke-width="2"/>
<path d="M44.0187 25.1175L50.1029 21.6049L56.187 25.1175V32.1429L50.1029 35.6556L44.0187 32.1429V25.1175Z" stroke="#FE9100" stroke-width="2"/>
<path d="M18.4561 106.918L24.5402 103.405L30.6243 106.918V113.944L24.5402 117.456L18.4561 113.944V106.918Z" stroke="#FE9100" stroke-width="2"/>
<path d="M18.4561 45.5677L24.5402 42.055L30.6243 45.5677V52.5931L24.5402 56.1058L18.4561 52.5931V45.5677Z" stroke="#FE9100" stroke-width="2"/>
<path d="M2.09592 66.0179L8.18006 62.5052L14.2642 66.0179V73.0432L8.18006 76.5559L2.09592 73.0432V66.0179Z" stroke="#FE9100" stroke-width="2"/>
<path d="M35.8387 147.819L41.9228 144.306L48.007 147.819V154.844L41.9228 158.357L35.8387 154.844V147.819Z" stroke="#FE9100" stroke-width="2"/>
<path d="M10.276 168.269L16.3601 164.756L22.4443 168.269V175.294L16.3601 178.807L10.276 175.294V168.269Z" stroke="#FE9100" stroke-width="2"/>
<path d="M2.09592 4.66738L8.18006 1.1547L14.2642 4.66738V11.6927L8.18006 15.2054L2.09592 11.6927V4.66738Z" stroke="#FE9100" stroke-width="2"/>
<path d="M2.09592 127.368L8.18006 123.856L14.2642 127.368V134.394L8.18006 137.906L2.09592 134.394V127.368Z" stroke="#FE9100" stroke-width="2"/>
<path d="M2.09592 66.0179L8.18006 62.5052L14.2642 66.0179V73.0432L8.18006 76.5559L2.09592 73.0432V66.0179Z" stroke="#FE9100" stroke-width="2"/>
<path d="M256.65 64.418V114.307" stroke="white" stroke-width="2" stroke-miterlimit="10"/>
<path d="M379.35 64.418V114.307" stroke="white" stroke-width="2" stroke-miterlimit="10"/>
<defs>
<linearGradient id="paint0_linear" x1="317.946" y1="39.8778" x2="317.946" y2="140.084" gradientUnits="userSpaceOnUse">
<stop stop-color="#574CFA"/>
<stop offset="0.54" stop-color="#30298A"/>
<stop offset="1" stop-color="#211C5F"/>
</linearGradient>
<clipPath id="clip0">
<path d="M267.897 39.8778H368.103V140.084H267.897V39.8778Z" fill="white"/>
</clipPath>
</defs>
</svg>
