<svg width="636" height="179" viewBox="0 0 636 179" fill="none" xmlns="http://www.w3.org/2000/svg">
<path d="M608.935 89.1618H375.898" stroke="#0580FC" stroke-width="2"/>
<path d="M608.921 81.6335L621.961 74.1053L635 81.6335V96.6901L621.961 104.218L608.921 96.6901V81.6335Z" stroke="#0580FC" stroke-width="2"/>
<path d="M14.6914 8.10562L616.534 8.10562" stroke="#EB034C" stroke-width="2" stroke-dasharray="2 2"/>
<path d="M66.3647 28.3697H616.534" stroke="#EB034C" stroke-width="2" stroke-dasharray="2 2"/>
<path d="M30.9027 149.954H616.225" stroke="#EB034C" stroke-width="2" stroke-dasharray="2 2"/>
<path d="M16.9858 170.218L616.533 170.218" stroke="#EB034C" stroke-width="2" stroke-dasharray="2 2"/>
<path d="M3.09913 4.63016L9.1188 1.1547L15.1385 4.63016V11.5811L9.1188 15.0565L3.09913 11.5811V4.63016Z" stroke="#EB034C" stroke-width="2"/>
<path d="M19.3104 146.478L25.3301 143.003L31.3498 146.478V153.429L25.3301 156.905L19.3104 153.429V146.478Z" stroke="#EB034C" stroke-width="2"/>
<path d="M616.086 4.63016L622.106 1.1547L628.126 4.63016V11.5811L622.106 15.0565L616.086 11.5811V4.63016Z" stroke="#EB034C" stroke-width="2"/>
<path d="M616.086 146.478L622.106 143.003L628.126 146.478V153.429L622.106 156.905L616.086 153.429V146.478Z" stroke="#EB034C" stroke-width="2"/>
<path d="M54.7725 24.8942L60.7921 21.4187L66.8118 24.8942V31.8451L60.7921 35.3206L54.7725 31.8451V24.8942Z" stroke="#EB034C" stroke-width="2"/>
<path d="M5.1255 166.743L11.1452 163.267L17.1648 166.743V173.693L11.1452 177.169L5.1255 173.693V166.743Z" stroke="#EB034C" stroke-width="2"/>
<path d="M616.086 24.8942L622.106 21.4187L628.126 24.8942V31.8451L622.106 35.3206L616.086 31.8451V24.8942Z" stroke="#EB034C" stroke-width="2"/>
<path d="M616.086 166.743L622.106 163.267L628.126 166.743V173.693L622.106 177.169L616.086 173.693V166.743Z" stroke="#EB034C" stroke-width="2"/>
<path d="M29.8894 48.6337H133.743L254.314 89.1618" stroke="#FE9100" stroke-width="2" stroke-dasharray="2 2"/>
<path d="M13.6782 68.8978H133.743L254.314 89.1618" stroke="#FE9100" stroke-width="2" stroke-dasharray="2 2"/>
<path d="M51.6733 89.1618L254.314 89.1618" stroke="#FE9100" stroke-width="2" stroke-dasharray="2 2"/>
<path d="M13.6782 129.69H133.743L254.314 89.1618" stroke="#FE9100" stroke-width="2" stroke-dasharray="2 2"/>
<path d="M29.8894 109.426H133.743L254.314 89.1618" stroke="#FE9100" stroke-width="2" stroke-dasharray="2 2"/>
<path d="M40.5877 85.6863L46.6073 82.2109L52.627 85.6863V92.6373L46.6073 96.1127L40.5877 92.6373V85.6863Z" stroke="#FE9100" stroke-width="2"/>
<path d="M18.2971 105.95L24.3168 102.475L30.3365 105.95V112.901L24.3168 116.377L18.2971 112.901V105.95Z" stroke="#FE9100" stroke-width="2"/>
<path d="M18.2971 45.1583L24.3168 41.6828L30.3365 45.1583V52.1092L24.3168 55.5846L18.2971 52.1092V45.1583Z" stroke="#FE9100" stroke-width="2"/>
<path d="M2.08595 126.214L8.10562 122.739L14.1253 126.214V133.165L8.10562 136.641L2.08595 133.165V126.214Z" stroke="#FE9100" stroke-width="2"/>
<path d="M2.08595 65.4223L8.10562 61.9468L14.1253 65.4223V72.3732L8.10562 75.8487L2.08595 72.3732V65.4223Z" stroke="#FE9100" stroke-width="2"/>
<path d="M314.345 42.5545H254.314V123.78H314.345V42.5545Z" stroke="white" stroke-width="2" stroke-miterlimit="10"/>
<path d="M260.195 49.1458H308.464" stroke="white" stroke-width="2" stroke-miterlimit="10"/>
<path d="M260.195 55.3316H308.464" stroke="white" stroke-width="2" stroke-miterlimit="10"/>
<path d="M260.195 61.5172H308.464" stroke="white" stroke-width="2" stroke-miterlimit="10"/>
<path d="M260.195 67.7029H308.464" stroke="white" stroke-width="2" stroke-miterlimit="10"/>
<path d="M260.195 73.8885H308.464" stroke="white" stroke-width="2" stroke-miterlimit="10"/>
<path d="M260.195 80.0743H308.464" stroke="white" stroke-width="2" stroke-miterlimit="10"/>
<path d="M260.195 86.26H308.464" stroke="white" stroke-width="2" stroke-miterlimit="10"/>
<path d="M260.195 92.4456H308.464" stroke="white" stroke-width="2" stroke-miterlimit="10"/>
<path d="M260.195 98.6314H308.464" stroke="white" stroke-width="2" stroke-miterlimit="10"/>
<path d="M260.195 104.817H308.464" stroke="white" stroke-width="2" stroke-miterlimit="10"/>
<path d="M260.195 111.003H308.464" stroke="white" stroke-width="2" stroke-miterlimit="10"/>
<path d="M260.195 117.189H308.464" stroke="white" stroke-width="2" stroke-miterlimit="10"/>
<path d="M314.345 45.4952H329.657V126.72H269.727V123.78" stroke="white" stroke-width="2" stroke-miterlimit="10"/>
<path d="M323.776 52.0865H314.345" stroke="white" stroke-width="2" stroke-miterlimit="10"/>
<path d="M323.776 58.2723H314.345" stroke="white" stroke-width="2" stroke-miterlimit="10"/>
<path d="M323.776 64.4579H314.345" stroke="white" stroke-width="2" stroke-miterlimit="10"/>
<path d="M323.776 70.6436H314.345" stroke="white" stroke-width="2" stroke-miterlimit="10"/>
<path d="M323.776 76.8292H314.345" stroke="white" stroke-width="2" stroke-miterlimit="10"/>
<path d="M323.776 83.015H314.345" stroke="white" stroke-width="2" stroke-miterlimit="10"/>
<path d="M323.776 89.2007H314.345" stroke="white" stroke-width="2" stroke-miterlimit="10"/>
<path d="M323.776 95.3863H314.345" stroke="white" stroke-width="2" stroke-miterlimit="10"/>
<path d="M323.776 101.572H314.345" stroke="white" stroke-width="2" stroke-miterlimit="10"/>
<path d="M323.776 107.758H314.345" stroke="white" stroke-width="2" stroke-miterlimit="10"/>
<path d="M323.776 113.943H314.345" stroke="white" stroke-width="2" stroke-miterlimit="10"/>
<path d="M323.776 120.129H314.345" stroke="white" stroke-width="2" stroke-miterlimit="10"/>
<path d="M329.759 48.4361H345.071V129.661H285.141V126.721" stroke="white" stroke-width="2" stroke-miterlimit="10"/>
<path d="M339.189 55.0274H329.759" stroke="white" stroke-width="2" stroke-miterlimit="10"/>
<path d="M339.19 61.2132H329.759" stroke="white" stroke-width="2" stroke-miterlimit="10"/>
<path d="M339.19 67.3987H329.759" stroke="white" stroke-width="2" stroke-miterlimit="10"/>
<path d="M339.19 73.5845H329.759" stroke="white" stroke-width="2" stroke-miterlimit="10"/>
<path d="M339.19 79.7701H329.759" stroke="white" stroke-width="2" stroke-miterlimit="10"/>
<path d="M339.19 85.9557H329.759" stroke="white" stroke-width="2" stroke-miterlimit="10"/>
<path d="M339.19 92.1416H329.759" stroke="white" stroke-width="2" stroke-miterlimit="10"/>
<path d="M339.19 98.3272H329.759" stroke="white" stroke-width="2" stroke-miterlimit="10"/>
<path d="M339.19 104.513H329.759" stroke="white" stroke-width="2" stroke-miterlimit="10"/>
<path d="M339.19 110.698H329.759" stroke="white" stroke-width="2" stroke-miterlimit="10"/>
<path d="M339.19 116.884H329.759" stroke="white" stroke-width="2" stroke-miterlimit="10"/>
<path d="M339.19 123.07H329.759" stroke="white" stroke-width="2" stroke-miterlimit="10"/>
<path d="M345.071 51.3766H360.484V132.602H300.453V129.661" stroke="white" stroke-width="2" stroke-miterlimit="10"/>
<path d="M354.603 57.9679H345.071" stroke="white" stroke-width="2" stroke-miterlimit="10"/>
<path d="M354.603 64.1537H345.071" stroke="white" stroke-width="2" stroke-miterlimit="10"/>
<path d="M354.603 70.3392H345.071" stroke="white" stroke-width="2" stroke-miterlimit="10"/>
<path d="M354.603 76.525H345.071" stroke="white" stroke-width="2" stroke-miterlimit="10"/>
<path d="M354.603 82.7106H345.071" stroke="white" stroke-width="2" stroke-miterlimit="10"/>
<path d="M354.603 88.8963H345.071" stroke="white" stroke-width="2" stroke-miterlimit="10"/>
<path d="M354.603 95.0821H345.071" stroke="white" stroke-width="2" stroke-miterlimit="10"/>
<path d="M354.603 101.268H345.071" stroke="white" stroke-width="2" stroke-miterlimit="10"/>
<path d="M354.603 107.453H345.071" stroke="white" stroke-width="2" stroke-miterlimit="10"/>
<path d="M354.603 113.639H345.071" stroke="white" stroke-width="2" stroke-miterlimit="10"/>
<path d="M354.603 119.825H345.071" stroke="white" stroke-width="2" stroke-miterlimit="10"/>
<path d="M354.603 126.01H345.071" stroke="white" stroke-width="2" stroke-miterlimit="10"/>
<path d="M360.484 54.3176H375.898V135.543H315.866V132.602" stroke="white" stroke-width="2" stroke-miterlimit="10"/>
<path d="M370.016 60.9088H360.484" stroke="white" stroke-width="2" stroke-miterlimit="10"/>
<path d="M370.016 67.0945H360.484" stroke="white" stroke-width="2" stroke-miterlimit="10"/>
<path d="M370.016 73.28H360.484" stroke="white" stroke-width="2" stroke-miterlimit="10"/>
<path d="M370.016 79.4659H360.484" stroke="white" stroke-width="2" stroke-miterlimit="10"/>
<path d="M370.016 85.6513H360.484" stroke="white" stroke-width="2" stroke-miterlimit="10"/>
<path d="M370.016 91.8372H360.484" stroke="white" stroke-width="2" stroke-miterlimit="10"/>
<path d="M370.016 98.023H360.484" stroke="white" stroke-width="2" stroke-miterlimit="10"/>
<path d="M370.016 104.208H360.484" stroke="white" stroke-width="2" stroke-miterlimit="10"/>
<path d="M370.016 110.394H360.484" stroke="white" stroke-width="2" stroke-miterlimit="10"/>
<path d="M370.016 116.58H360.484" stroke="white" stroke-width="2" stroke-miterlimit="10"/>
<path d="M370.016 122.766H360.484" stroke="white" stroke-width="2" stroke-miterlimit="10"/>
<path d="M370.016 128.951H360.484" stroke="white" stroke-width="2" stroke-miterlimit="10"/>
</svg>
