<svg width="636" height="180" viewBox="0 0 636 180" fill="none" xmlns="http://www.w3.org/2000/svg">
<path d="M64.6744 28.6495H14.0777" stroke="#0580FC" stroke-width="2" stroke-dasharray="2 2"/>
<path d="M128.325 107.383L100.717 93.0675" stroke="#0580FC" stroke-width="2"/>
<path d="M140.083 50.1222L256.649 90" stroke="#0580FC" stroke-width="2"/>
<path d="M14.3152 69.5498H134.971L256.65 90" stroke="#0580FC" stroke-width="2"/>
<path d="M101.099 90L256.649 90" stroke="#0580FC" stroke-width="2" stroke-dasharray="2 2"/>
<path d="M40.9004 110.45L127.814 110.45M14.3152 171.801H127.814" stroke="#0580FC" stroke-width="2"/>
<path d="M91.0032 49.0997L127.813 49.0997" stroke="#0580FC" stroke-width="2"/>
<path d="M14.3152 130.9H80.7782M20.4502 90H88.9583" stroke="#0580FC" stroke-width="2"/>
<path d="M38.8552 8.19934L127.813 8.19934" stroke="#0580FC" stroke-width="2"/>
<path d="M139.572 11.2669L256.649 90" stroke="#0580FC" stroke-width="2"/>
<path d="M76.688 28.6495H120.145L130.881 13.3119" stroke="#0580FC" stroke-width="2"/>
<path d="M32.7202 49.0997H56.7492L67.4855 33.7621" stroke="#0580FC" stroke-width="2"/>
<path d="M93.0482 130.9H134.971L256.65 90" stroke="#0580FC" stroke-width="2"/>
<path d="M140.083 109.428L256.649 90" stroke="#0580FC" stroke-width="2"/>
<path d="M139.572 168.733L256.649 90" stroke="#0580FC" stroke-width="2"/>
<path d="M56.7493 151.35H134.971L256.65 90" stroke="#0580FC" stroke-width="2" stroke-dasharray="2 2"/>
<path d="M38.8045 4.68667L32.7203 1.17399L26.6362 4.68667V11.712L32.7203 15.2247L38.8045 11.712V4.68667Z" stroke="#0580FC" stroke-width="2"/>
<path d="M20.3992 86.4873L14.3151 82.9746L8.23091 86.4873V93.5127L14.3151 97.0254L20.3992 93.5127V86.4873Z" stroke="#0580FC" stroke-width="2"/>
<path d="M76.6372 25.1368L70.5531 21.6242L64.4689 25.1368V32.1622L70.5531 35.6749L76.6372 32.1622V25.1368Z" stroke="#0580FC" stroke-width="2"/>
<path d="M140.033 106.937L133.949 103.425L127.864 106.937V113.963L133.949 117.476L140.033 113.963V106.937Z" stroke="#0580FC" stroke-width="2"/>
<path d="M101.177 86.4873L95.0933 82.9746L89.0091 86.4873V93.5127L95.0933 97.0254L101.177 93.5127V86.4873Z" stroke="#0580FC" stroke-width="2"/>
<path d="M140.033 45.587L133.949 42.0743L127.864 45.587V52.6124L133.949 56.125L140.033 52.6124V45.587Z" stroke="#0580FC" stroke-width="2"/>
<path d="M90.9523 45.587L84.8682 42.0743L78.784 45.587V52.6124L84.8682 56.125L90.9523 52.6124V45.587Z" stroke="#0580FC" stroke-width="2"/>
<path d="M14.2642 25.1368L8.18004 21.6242L2.0959 25.1368V32.1622L8.18004 35.6749L14.2642 32.1622V25.1368Z" stroke="#0580FC" stroke-width="2"/>
<path d="M140.033 4.68667L133.949 1.17399L127.864 4.68667V11.712L133.949 15.2247L140.033 11.712V4.68667Z" stroke="#0580FC" stroke-width="2"/>
<path d="M40.8494 106.937L34.7652 103.425L28.6811 106.937V113.963L34.7652 117.476L40.8494 113.963V106.937Z" stroke="#0580FC" stroke-width="2"/>
<path d="M32.6692 45.587L26.5851 42.0743L20.5009 45.587V52.6124L26.5851 56.125L32.6692 52.6124V45.587Z" stroke="#0580FC" stroke-width="2"/>
<path d="M14.2642 127.388L8.18004 123.875L2.0959 127.388V134.413L8.18004 137.926L14.2642 134.413V127.388Z" stroke="#0580FC" stroke-width="2"/>
<path d="M92.9973 127.388L86.9132 123.875L80.8291 127.388V134.413L86.9132 137.926L92.9973 134.413V127.388Z" stroke="#0580FC" stroke-width="2"/>
<path d="M14.2642 66.0372L8.18004 62.5245L2.0959 66.0372V73.0625L8.18004 76.5752L14.2642 73.0625V66.0372Z" stroke="#0580FC" stroke-width="2"/>
<path d="M57.2095 147.838L51.1254 144.325L45.0412 147.838V154.863L51.1254 158.376L57.2095 154.863V147.838Z" stroke="#0580FC" stroke-width="2"/>
<path d="M14.2642 168.288L8.18004 164.775L2.0959 168.288V175.313L8.18004 178.826L14.2642 175.313V168.288Z" stroke="#0580FC" stroke-width="2"/>
<path d="M140.033 168.288L133.949 164.775L127.864 168.288V175.313L133.949 178.826L140.033 175.313V168.288Z" stroke="#0580FC" stroke-width="2"/>
<path d="M571.326 151.35H621.922" stroke="#01A38A" stroke-width="2" stroke-dasharray="2 2"/>
<path d="M507.675 72.6174L535.283 86.9325" stroke="#01A38A" stroke-width="2"/>
<path d="M495.917 129.878L379.351 90" stroke="#01A38A" stroke-width="2"/>
<path d="M621.685 110.45H501.029L379.351 90" stroke="#01A38A" stroke-width="2"/>
<path d="M534.901 90L379.351 90" stroke="#01A38A" stroke-width="2" stroke-dasharray="2 2"/>
<path d="M595.1 69.5499L508.187 69.5499M621.685 8.19937L508.187 8.19937" stroke="#01A38A" stroke-width="2"/>
<path d="M544.997 130.9H508.187" stroke="#01A38A" stroke-width="2"/>
<path d="M621.685 49.0997L555.222 49.0997M615.55 90H547.042" stroke="#01A38A" stroke-width="2"/>
<path d="M597.145 171.801H508.187" stroke="#01A38A" stroke-width="2"/>
<path d="M496.428 168.733L379.351 90" stroke="#01A38A" stroke-width="2"/>
<path d="M559.312 151.35H515.856L505.119 166.688" stroke="#01A38A" stroke-width="2"/>
<path d="M603.28 130.9H579.251L568.515 146.238" stroke="#01A38A" stroke-width="2"/>
<path d="M542.952 49.0997H501.029L379.351 90" stroke="#01A38A" stroke-width="2"/>
<path d="M495.917 70.5723L379.351 90" stroke="#01A38A" stroke-width="2"/>
<path d="M496.428 11.2669L379.351 90" stroke="#01A38A" stroke-width="2"/>
<path d="M579.251 28.6495H501.029L379.351 90" stroke="#01A38A" stroke-width="2" stroke-dasharray="2 2"/>
<path d="M597.196 175.313L603.28 178.826L609.364 175.313V168.288L603.28 164.775L597.196 168.288V175.313Z" stroke="#01A38A" stroke-width="2"/>
<path d="M615.601 93.5127L621.685 97.0254L627.769 93.5127V86.4873L621.685 82.9746L615.601 86.4873V93.5127Z" stroke="#01A38A" stroke-width="2"/>
<path d="M559.363 154.863L565.447 158.376L571.531 154.863V147.838L565.447 144.325L559.363 147.838V154.863Z" stroke="#01A38A" stroke-width="2"/>
<path d="M495.967 73.0625L502.052 76.5752L508.136 73.0625V66.0372L502.052 62.5245L495.967 66.0372V73.0625Z" stroke="#01A38A" stroke-width="2"/>
<path d="M534.823 93.5127L540.907 97.0254L546.991 93.5127V86.4873L540.907 82.9746L534.823 86.4873V93.5127Z" stroke="#01A38A" stroke-width="2"/>
<path d="M495.967 134.413L502.052 137.926L508.136 134.413V127.388L502.052 123.875L495.967 127.388V134.413Z" stroke="#01A38A" stroke-width="2"/>
<path d="M545.048 134.413L551.132 137.926L557.216 134.413V127.388L551.132 123.875L545.048 127.388V134.413Z" stroke="#01A38A" stroke-width="2"/>
<path d="M621.736 154.863L627.82 158.376L633.904 154.863V147.838L627.82 144.325L621.736 147.838V154.863Z" stroke="#01A38A" stroke-width="2"/>
<path d="M495.967 175.313L502.052 178.826L508.136 175.313V168.288L502.052 164.775L495.967 168.288V175.313Z" stroke="#01A38A" stroke-width="2"/>
<path d="M595.151 73.0625L601.235 76.5752L607.319 73.0625V66.0372L601.235 62.5245L595.151 66.0372V73.0625Z" stroke="#01A38A" stroke-width="2"/>
<path d="M603.331 134.413L609.415 137.926L615.499 134.413V127.388L609.415 123.875L603.331 127.388V134.413Z" stroke="#01A38A" stroke-width="2"/>
<path d="M621.736 52.6123L627.82 56.125L633.904 52.6123V45.587L627.82 42.0743L621.736 45.587V52.6123Z" stroke="#01A38A" stroke-width="2"/>
<path d="M543.003 52.6123L549.087 56.125L555.171 52.6123V45.587L549.087 42.0743L543.003 45.587V52.6123Z" stroke="#01A38A" stroke-width="2"/>
<path d="M621.736 113.963L627.82 117.476L633.904 113.963V106.937L627.82 103.425L621.736 106.937V113.963Z" stroke="#01A38A" stroke-width="2"/>
<path d="M578.791 32.1622L584.875 35.6749L590.959 32.1622V25.1368L584.875 21.6242L578.791 25.1368V32.1622Z" stroke="#01A38A" stroke-width="2"/>
<path d="M621.736 11.712L627.82 15.2247L633.904 11.712V4.68668L627.82 1.174L621.736 4.68668V11.712Z" stroke="#01A38A" stroke-width="2"/>
<path d="M495.967 11.712L502.052 15.2247L508.136 11.712V4.68668L502.052 1.174L495.967 4.68668V11.712Z" stroke="#01A38A" stroke-width="2"/>
<path d="M379.35 39.8971H256.65V129.892H379.35V39.8971Z" stroke="white" stroke-width="2" stroke-miterlimit="10"/>
<path d="M296.936 129.892H279.284V139.747H296.936V129.892Z" stroke="white" stroke-width="2" stroke-miterlimit="10"/>
<path d="M358.557 129.892H340.905V139.747H358.557V129.892Z" stroke="white" stroke-width="2" stroke-miterlimit="10"/>
<path d="M268.562 58.7409V48.5609H367.438V121.12H268.562V113.756" stroke="white" stroke-width="2" stroke-miterlimit="10"/>
<path d="M268.562 92.638V79.8589" stroke="white" stroke-width="2" stroke-miterlimit="10"/>
<path d="M273.977 58.7409H263.147V79.8589H273.977V58.7409Z" stroke="white" stroke-width="2" stroke-miterlimit="10"/>
<path d="M273.977 92.6379H263.147V113.756H273.977V92.6379Z" stroke="white" stroke-width="2" stroke-miterlimit="10"/>
<path d="M317.946 100.327C326.499 100.327 333.433 93.3935 333.433 84.8405C333.433 76.2875 326.499 69.354 317.946 69.354C309.393 69.354 302.459 76.2875 302.459 84.8405C302.459 93.3935 309.393 100.327 317.946 100.327Z" stroke="white" stroke-width="2" stroke-miterlimit="10"/>
<path d="M317.946 95.1288C323.628 95.1288 328.234 90.5226 328.234 84.8405C328.234 79.1585 323.628 74.5523 317.946 74.5523C312.264 74.5523 307.658 79.1585 307.658 84.8405C307.658 90.5226 312.264 95.1288 317.946 95.1288Z" stroke="white" stroke-width="2" stroke-miterlimit="10"/>
<path d="M317.946 69.3539V74.5522" stroke="white" stroke-width="2" stroke-miterlimit="10"/>
<path d="M317.946 95.237V100.435" stroke="white" stroke-width="2" stroke-miterlimit="10"/>
<path d="M302.459 84.8405H307.658" stroke="white" stroke-width="2" stroke-miterlimit="10"/>
<path d="M328.343 84.8405H333.541" stroke="white" stroke-width="2" stroke-miterlimit="10"/>
<path d="M307.008 95.8867L310.69 92.2046" stroke="white" stroke-width="2" stroke-miterlimit="10"/>
<path d="M325.31 77.5845L328.992 73.9024" stroke="white" stroke-width="2" stroke-miterlimit="10"/>
<path d="M328.992 95.8867L325.31 92.2046" stroke="white" stroke-width="2" stroke-miterlimit="10"/>
<path d="M310.69 77.5845L307.008 73.9023" stroke="white" stroke-width="2" stroke-miterlimit="10"/>
<path d="M311.99 70.5453L314.047 75.4186" stroke="white" stroke-width="2" stroke-miterlimit="10"/>
<path d="M321.953 94.3706L324.011 99.244" stroke="white" stroke-width="2" stroke-miterlimit="10"/>
<path d="M303.651 90.905L308.524 88.8474" stroke="white" stroke-width="2" stroke-miterlimit="10"/>
<path d="M327.476 80.9417L332.349 78.8841" stroke="white" stroke-width="2" stroke-miterlimit="10"/>
<path d="M312.098 99.244L314.047 94.3706" stroke="white" stroke-width="2" stroke-miterlimit="10"/>
<path d="M321.953 75.3103L323.902 70.5452" stroke="white" stroke-width="2" stroke-miterlimit="10"/>
<path d="M332.349 90.7969L327.584 88.8476" stroke="white" stroke-width="2" stroke-miterlimit="10"/>
<path d="M308.416 80.9419L303.651 78.9925" stroke="white" stroke-width="2" stroke-miterlimit="10"/>
</svg>
