<svg width="636" height="190" viewBox="0 0 636 190" fill="none" xmlns="http://www.w3.org/2000/svg">
<path d="M213.187 94.703L183.346 146.767H157.87" stroke="#FE9100" stroke-width="2"/>
<path d="M178.695 42.639L127.933 42.639" stroke="#01A38A" stroke-width="2"/>
<path d="M148.759 146.767L127.933 146.767" stroke="#574CFA" stroke-width="2" stroke-dasharray="2 2"/>
<path d="M213.188 94.7033L185.584 46.5443" stroke="#0580FC" stroke-width="2" stroke-dasharray="2 2"/>
<path d="M213.188 94.7023L183.251 68.6704H157.87" stroke="#574CFA" stroke-width="2"/>
<path d="M93.4407 94.7034L123.377 68.6715H148.758" stroke="#FE9100" stroke-width="2" stroke-dasharray="2 2"/>
<path d="M93.4409 94.7033L119.759 117.589" stroke="#0580FC" stroke-width="2"/>
<path d="M163.076 120.735H127.933" stroke="#01A38A" stroke-width="2" stroke-dasharray="2 2"/>
<path d="M180.647 98.6079L170.235 116.83" stroke="#574CFA" stroke-width="2"/>
<path d="M213.188 94.703H187.806" stroke="#574CFA" stroke-width="2"/>
<path d="M178.695 94.703H142.251" stroke="#574CFA" stroke-width="2"/>
<path d="M150.711 64.7666L125.981 46.5443" stroke="#574CFA" stroke-width="2"/>
<path d="M183.251 37.4329L178.742 40.0361V45.2424L183.251 47.8456L187.76 45.2424V40.0361L183.251 37.4329Z" stroke="#FE9100" stroke-width="2"/>
<path d="M183.251 89.4969L178.742 92.1001V97.3065L183.251 99.9097L187.76 97.3065V92.1001L183.251 89.4969Z" stroke="#574CFA" stroke-width="2"/>
<path d="M123.378 115.528L118.869 118.132V123.338L123.378 125.941L127.886 123.338V118.132L123.378 115.528Z" stroke="#574CFA" stroke-width="2"/>
<path d="M153.314 141.56L148.805 144.163V149.37L153.314 151.973L157.823 149.37V144.163L153.314 141.56Z" stroke="#0580FC" stroke-width="2"/>
<path d="M167.632 115.528L163.123 118.132V123.338L167.632 125.941L172.141 123.338V118.132L167.632 115.528Z" stroke="#EB034C" stroke-width="2"/>
<path d="M153.314 63.4644L148.805 66.0676V71.2739L153.314 73.8771L157.823 71.2739V66.0676L153.314 63.4644Z" stroke="#01A38A" stroke-width="2"/>
<path d="M93.8219 94.7033L120.774 46.5443" stroke="#EB034C" stroke-width="2"/>
<path d="M123.378 37.4329L118.869 40.0361V45.2424L123.378 47.8456L127.886 45.2424V40.0361L123.378 37.4329Z" stroke="#574CFA" stroke-width="2"/>
<path d="M94.0917 94.703H133.14" stroke="#574CFA" stroke-width="2"/>
<path d="M137.695 89.4969L133.186 92.1001V97.3065L137.695 99.9097L142.204 97.3065V92.1001L137.695 89.4969Z" stroke="#FE9100" stroke-width="2"/>
<path d="M93.8219 94.703L120.774 142.862" stroke="#574CFA" stroke-width="2"/>
<path d="M123.378 141.56L118.869 144.163V149.37L123.378 151.973L127.886 149.37V144.163L123.378 141.56Z" stroke="#01A38A" stroke-width="2"/>
<path d="M422.812 94.703L452.654 146.767H478.13" stroke="#FE9100" stroke-width="2"/>
<path d="M457.305 42.639L508.067 42.639" stroke="#01A38A" stroke-width="2"/>
<path d="M487.241 146.767L508.067 146.767" stroke="#574CFA" stroke-width="2" stroke-dasharray="2 2"/>
<path d="M422.812 94.7033L450.416 46.5443" stroke="#0580FC" stroke-width="2" stroke-dasharray="2 2"/>
<path d="M422.812 94.7023L452.749 68.6704H478.13" stroke="#574CFA" stroke-width="2"/>
<path d="M542.559 94.7034L512.623 68.6715H487.241" stroke="#FE9100" stroke-width="2" stroke-dasharray="2 2"/>
<path d="M542.559 94.7033L516.241 117.589" stroke="#0580FC" stroke-width="2"/>
<path d="M472.924 120.734H508.067" stroke="#01A38A" stroke-width="2" stroke-dasharray="2 2"/>
<path d="M455.352 98.6079L465.765 116.83" stroke="#574CFA" stroke-width="2"/>
<path d="M422.812 94.703H448.193" stroke="#574CFA" stroke-width="2"/>
<path d="M457.305 94.703H493.749" stroke="#574CFA" stroke-width="2"/>
<path d="M485.289 64.7666L510.019 46.5443" stroke="#574CFA" stroke-width="2"/>
<path d="M452.749 37.4329L457.258 40.036V45.2424L452.749 47.8456L448.24 45.2424V40.036L452.749 37.4329Z" stroke="#FE9100" stroke-width="2"/>
<path d="M452.749 89.4969L457.258 92.1001V97.3065L452.749 99.9097L448.24 97.3065V92.1001L452.749 89.4969Z" stroke="#574CFA" stroke-width="2"/>
<path d="M512.622 115.528L517.131 118.132V123.338L512.622 125.941L508.113 123.338V118.132L512.622 115.528Z" stroke="#574CFA" stroke-width="2"/>
<path d="M482.686 141.56L487.194 144.163V149.369L482.686 151.973L478.177 149.369V144.163L482.686 141.56Z" stroke="#0580FC" stroke-width="2"/>
<path d="M468.368 115.528L472.877 118.132V123.338L468.368 125.941L463.859 123.338V118.132L468.368 115.528Z" stroke="#EB034C" stroke-width="2"/>
<path d="M482.686 63.4644L487.194 66.0675V71.2739L482.686 73.8771L478.177 71.2739V66.0675L482.686 63.4644Z" stroke="#01A38A" stroke-width="2"/>
<path d="M542.178 94.7033L515.226 46.5443" stroke="#EB034C" stroke-width="2"/>
<path d="M512.622 37.4329L517.131 40.036V45.2424L512.622 47.8456L508.113 45.2424V40.036L512.622 37.4329Z" stroke="#574CFA" stroke-width="2"/>
<path d="M541.908 94.703H502.86" stroke="#574CFA" stroke-width="2"/>
<path d="M498.305 89.4969L502.814 92.1001V97.3065L498.305 99.9097L493.796 97.3065V92.1001L498.305 89.4969Z" stroke="#FE9100" stroke-width="2"/>
<path d="M542.178 94.703L515.226 142.862" stroke="#574CFA" stroke-width="2"/>
<path d="M512.622 141.56L517.131 144.163V149.369L512.622 151.973L508.113 149.369V144.163L512.622 141.56Z" stroke="#01A38A" stroke-width="2"/>
<path d="M318.048 0.257507L237.119 47.4765V141.93L318.048 189.149L398.978 141.93V47.4765L318.048 0.257507Z" fill="url(#paint0_linear)"/>
<path d="M398.973 141.933V47.4802L371.987 94.7145L398.973 141.933Z" fill="#F8B564"/>
<path d="M318.058 0.257507L345.029 47.4765H398.987L318.058 0.257507Z" fill="#A680B0"/>
<path d="M345.022 47.4802L364.767 82.0611L371.993 94.7145L398.98 47.4802H345.022Z" fill="#D09B89"/>
<path d="M318.048 0.257507L237.119 47.4765H291.076L318.048 0.257507Z" fill="#5147E8"/>
<path d="M318.065 0.257507L291.093 47.4765H345.036L318.065 0.257507Z" fill="#574CFA"/>
<path d="M345.012 47.4802H330.559V72.8011L352.238 60.1336L345.012 47.4802Z" fill="#6354EF"/>
<path d="M237.119 47.4802V141.933L264.105 94.7145L237.119 47.4802Z" fill="#4139B9"/>
<path d="M291.076 47.4802H237.119L264.105 94.7145L271.331 82.0611L291.076 47.4802Z" fill="#443BC2"/>
<path d="M291.064 47.4802L283.839 60.1336L305.518 72.7857V47.4802H291.064Z" fill="#473ECB"/>
<path d="M305.511 47.4802V72.7857L318.03 80.1055L330.549 72.8011V47.4802H305.511Z" fill="#4A41D5"/>
<path d="M318.048 189.145L291.076 141.926H237.119L318.048 189.145Z" fill="#342E96"/>
<path d="M271.331 107.355L264.105 94.7031L237.119 141.922H291.076L271.331 107.355Z" fill="#3A33A7"/>
<path d="M271.31 82.0671L264.083 94.7205L271.31 107.373L292.991 94.7205L271.31 82.0671Z" fill="#3E36B0"/>
<path d="M283.856 60.1162L271.337 82.0437L293.018 94.6971L305.535 87.3926V72.7684L283.856 60.1162Z" fill="#3E36B0"/>
<path d="M305.511 72.7977V87.4219L318.03 80.1175L305.511 72.7977Z" fill="#3E36B0"/>
<path d="M398.987 141.926H345.029L318.058 189.145L398.987 141.926Z" fill="#251F68"/>
<path d="M398.98 141.922L371.993 94.7031L364.767 107.355L345.022 141.922H398.98Z" fill="#3E36B0"/>
<path d="M364.786 82.0671L343.106 94.7205L364.786 107.373L372.013 94.7205L364.786 82.0671Z" fill="#38319F"/>
<path d="M352.238 60.1162L330.559 72.7837V87.3926L343.077 94.6971L364.757 82.0437L352.238 60.1162Z" fill="#38319F"/>
<path d="M318.058 80.1024L330.577 87.4069V72.7979L318.058 80.1024Z" fill="#342E96"/>
<path d="M345.036 141.926H291.093L318.065 189.145L345.036 141.926Z" fill="#211C5F"/>
<path d="M352.238 129.262L330.559 116.608V141.915H345.013L352.238 129.262Z" fill="#312B8D"/>
<path d="M343.077 94.7031L330.559 102.008V116.615L352.238 129.269L364.757 107.355L343.077 94.7031Z" fill="#2E2884"/>
<path d="M330.559 87.4165V102.025L343.077 94.721L330.559 87.4165Z" fill="#2B257A"/>
<path d="M283.839 129.262L291.064 141.915H305.518V116.608L283.839 129.262Z" fill="#282271"/>
<path d="M318.03 109.323L305.511 116.626V141.933H330.549V116.626L318.03 109.322V109.323Z" fill="#2B257A"/>
<path d="M318.058 109.34L330.577 116.643V102.035L318.058 109.34Z" fill="#282271"/>
<path d="M293.018 94.7031L271.337 107.355L283.856 129.269L305.535 116.615V102.008L293.018 94.7031Z" fill="#282271"/>
<path d="M305.511 102.035V116.643L318.03 109.338L305.511 102.035Z" fill="#282271"/>
<path d="M293.01 94.721L305.527 102.025V87.4165L293.01 94.721Z" fill="#282271"/>
<path d="M318.03 80.0845L305.511 87.389V101.998L318.03 109.301L330.549 101.998V87.389L318.03 80.0845Z" fill="#251F68"/>
<path d="M69.3318 75.1885L35.1659 55.6652L1.00003 75.1885V114.217L35.1659 133.741L69.3318 114.217V75.1885Z" stroke="white" stroke-width="2"/>
<path d="M25.1138 80.1343C25.1138 74.2628 29.6557 69.5798 35.1659 69.5798C40.6761 69.5798 45.218 74.2628 45.218 80.1343C45.218 86.0057 40.6761 90.6888 35.1659 90.6888C29.6557 90.6888 25.1138 86.0057 25.1138 80.1343Z" stroke="white" stroke-width="2"/>
<path d="M16 123L16 113.961C16 104.041 24.5066 96 35 96C45.4934 96 54 104.041 54 113.961V123" stroke="white" stroke-width="2"/>
<path d="M93.4408 114.798V74.6082" stroke="white" stroke-width="2"/>
<path d="M422.995 141.926L422.995 47.4803" stroke="white" stroke-width="2"/>
<path d="M213.005 142.93L213.005 46.4755" stroke="white" stroke-width="2"/>
<path d="M542.559 114.798V74.6082" stroke="white" stroke-width="2"/>
<path d="M566.668 75.1885L600.834 55.6652L635 75.1885V114.217L600.834 133.741L566.668 114.217V75.1885Z" stroke="white" stroke-width="2"/>
<path d="M610.886 80.1343C610.886 74.2628 606.344 69.5798 600.834 69.5798C595.324 69.5798 590.782 74.2628 590.782 80.1343C590.782 86.0057 595.324 90.6888 600.834 90.6888C606.344 90.6888 610.886 86.0057 610.886 80.1343Z" stroke="white" stroke-width="2"/>
<path d="M620 123L620 113.961C620 104.041 611.493 96 601 96C590.507 96 582 104.041 582 113.961V123" stroke="white" stroke-width="2"/>
<defs>
<linearGradient id="paint0_linear" x1="318.048" y1="0.257507" x2="318.048" y2="189.149" gradientUnits="userSpaceOnUse">
<stop stop-color="#574CFA"/>
<stop offset="0.54" stop-color="#30298A"/>
<stop offset="1" stop-color="#211C5F"/>
</linearGradient>
</defs>
</svg>
