<svg width="64" height="64" viewBox="0 0 64 64" fill="none" xmlns="http://www.w3.org/2000/svg">
<path d="M31.6757 0L4 15.9758V47.9325L31.6757 63.9083L59.3514 47.9325V15.9758L31.6757 0Z" fill="url(#paint0_linear)"/>
<path d="M59.3535 47.9255V15.9688L50.125 31.9497L59.3535 47.9255Z" fill="#F8B564"/>
<path d="M31.6719 0L40.8953 15.9758H59.3476L31.6719 0Z" fill="#A680B0"/>
<path d="M40.8989 15.9688L47.6509 27.6686L50.1222 31.9497L59.3508 15.9688H40.8984H40.8989Z" fill="#D09B89"/>
<path d="M31.6757 0L4 15.9758H22.4519L31.6757 0Z" fill="#5147E8"/>
<path d="M31.6769 0L22.4531 15.9758H40.9002L31.6769 0Z" fill="#574CFA"/>
<path d="M40.8959 15.9688H35.9532V24.5357L43.3668 20.2498L40.8955 15.9688H40.8959Z" fill="#6354EF"/>
<path d="M4 15.9688V47.9255L13.2285 31.9497L4 15.9688Z" fill="#4139B9"/>
<path d="M22.4519 15.9688H4L13.2285 31.9497L15.6999 27.6686L22.4519 15.9688Z" fill="#443BC2"/>
<path d="M22.4552 15.9688L19.9843 20.2498L27.3979 24.5305V15.9688H22.4552Z" fill="#473ECB"/>
<path d="M27.3984 15.9688V24.5305L31.6795 27.007L35.9605 24.5357V15.9688H27.3984Z" fill="#4A41D5"/>
<path d="M31.6757 63.9133L22.4519 47.9375H4L31.6757 63.9133Z" fill="#342E96"/>
<path d="M15.6999 36.2338L13.2285 31.9531L4 47.9289H22.4519L15.6999 36.2338Z" fill="#3A33A7"/>
<path d="M15.6979 27.6719L13.2266 31.953L15.6979 36.2336L23.112 31.953L15.6979 27.6719Z" fill="#3E36B0"/>
<path d="M19.9841 20.25L15.7031 27.6688L23.1171 31.9499L27.3978 29.4785V24.5306L19.9841 20.25Z" fill="#3E36B0"/>
<path d="M27.3984 24.5312V29.4791L31.6795 27.0078L27.3984 24.5312Z" fill="#3E36B0"/>
<path d="M59.3476 47.9375H40.8953L31.6719 63.9133L59.3476 47.9375Z" fill="#251F68"/>
<path d="M59.3504 47.9289L50.1218 31.9531L47.6505 36.2338L40.8985 47.9289H59.3504Z" fill="#3E36B0"/>
<path d="M47.6485 27.6719L40.2344 31.953L47.6485 36.2336L50.1198 31.953L47.6485 27.6719Z" fill="#38319F"/>
<path d="M43.3668 20.25L35.9532 24.5358V29.4785L40.2338 31.9499L47.6479 27.6688L43.3668 20.25Z" fill="#38319F"/>
<path d="M31.6719 27.0182L35.953 29.4896V24.5469L31.6719 27.0182Z" fill="#342E96"/>
<path d="M35.958 47.9375H27.3958H22.4531L31.6769 63.9133L40.9002 47.9375H35.958Z" fill="#211C5F"/>
<path d="M43.3668 43.6561L35.9532 39.375V47.9372H40.8959L43.3668 43.6561Z" fill="#312B8D"/>
<path d="M40.2338 31.9531L35.9532 34.4245V39.3667L43.3668 43.6478L47.6479 36.2338L40.2338 31.9531Z" fill="#2E2884"/>
<path d="M35.9532 29.4844V34.4271L40.2338 31.9557L35.9532 29.4844Z" fill="#2B257A"/>
<path d="M19.9843 43.6561L22.4552 47.9372H27.3979V39.375L19.9843 43.6561Z" fill="#282271"/>
<path d="M31.6795 36.9067L27.3984 39.3776V47.9398H35.9605V39.3776L31.6795 36.9062V36.9067Z" fill="#2B257A"/>
<path d="M31.6719 36.8932L35.953 39.3641V34.4219L31.6719 36.8932Z" fill="#282271"/>
<path d="M23.1171 31.9531L15.7031 36.2338L19.9841 43.6478L27.3978 39.3667V34.4245L23.1171 31.9531Z" fill="#282271"/>
<path d="M27.3984 34.4219V39.3641L31.6795 36.8928L27.3984 34.4219Z" fill="#282271"/>
<path d="M23.1171 31.9557L27.3978 34.4271V29.4844L23.1171 31.9557Z" fill="#282271"/>
<path d="M31.6795 27.0156L27.3984 29.487V34.4297L31.6795 36.9006L35.9605 34.4297V29.487L31.6795 27.0156Z" fill="#251F68"/>
<defs>
<linearGradient id="paint0_linear" x1="31.6757" y1="0" x2="31.6757" y2="63.9083" gradientUnits="userSpaceOnUse">
<stop stop-color="#574CFA"/>
<stop offset="0.54" stop-color="#30298A"/>
<stop offset="1" stop-color="#211C5F"/>
</linearGradient>
</defs>
</svg>
